# AST/ASF file generated using VICON BodyLanguage
# -----------------------------------------------
:version 1.10
:name VICON
:units
  mass 1.0
  length 0.45
  angle deg
:documentation
   .ast/.asf automatically generated from VICON data using
   VICON BodyBuilder and BodyLanguage model FoxedUp or BRILLIANT.MOD
:root
   order TX TY TZ RX RY RZ
   axis XYZ
   position 0 0 0  
   orientation 0 0 0 
:bonedata
  begin
     id 1 
     name lhipjoint
     direction 0.623529 -0.717805 0.309788 
     length 2.23224 
     axis 0 0 0  XYZ
  end
  begin
     id 2 
     name lfemur
     direction 0.34202 -0.939693 0  
     length 7.11402  
     axis 0 0 20  XYZ
    dof rx ry rz
    limits (-160.0 20.0)
           (-70.0 70.0)
           (-60.0 70.0)
  end
  begin
     id 3 
     name ltibia
     direction 0.34202 -0.939693 0   
     length 6.78496   
     axis 0 0 20   XYZ
    dof rx
    limits (-10.0 170.0)
  end
  begin
     id 4 
     name lfoot
     direction 0.125078 -0.343648 0.930732   
     length 1.84054   
     axis -90 7.62852e-016 20   XYZ
    dof rx rz
    limits (-45.0 90.0)
           (-70.0 20.0)
  end
  begin
     id 5 
     name ltoes
     direction 1.53565e-011 -4.21893e-011 1   
     length 0.916474   
     axis -90 7.62852e-016 20   XYZ
    dof rx
    limits (-90.0 20.0)
  end
  begin
     id 6 
     name rhipjoint
     direction -0.564688 -0.757748 0.327026   
     length 2.11457  
     axis 0 0 0  XYZ 
  end
  begin
     id 7 
     name rfemur
     direction -0.34202 -0.939693 0   
     length 7.14609   
     axis 0 0 -20   XYZ
    dof rx ry rz
    limits (-160.0 20.0)
           (-70.0 70.0)
           (-70.0 60.0)
  end
  begin
     id 8 
     name rtibia
     direction -0.34202 -0.939693 0   
     length 6.78101   
     axis 0 0 -20   XYZ
    dof rx
    limits (-10.0 170.0)
 end
 begin
     id 9 
     name rfoot
     direction -0.0992671 -0.272734 0.956955   
     length 1.96168  
     axis -90 -7.62852e-016 -20   XYZ
    dof rx rz
    limits (-45.0 90.0)
           (-20.0 70.0)
  end
  begin
     id 10 
     name rtoes
     direction -1.5356e-011 -4.21891e-011 1   
     length 0.982933   
     axis -90 -7.62852e-016 -20   XYZ
    dof rx
    limits (-90.0 20.0)
  end
  begin
     id 11 
     name lowerback
     direction -0.00596953 0.998668 0.0512524   
     length 1.87557   
     axis 0 0 0   XYZ
    dof rx ry rz
    limits (-20.0 45.0)
           (-30.0 30.0)
           (-30.0 30.0)
  end
  begin
     id 12 
     name upperback
     direction 0.00584879 0.999652 0.0257308   
     length 1.87883   
     axis 0 0 0   XYZ
    dof rx ry rz
    limits (-20.0 45.0)
           (-30.0 30.0)
           (-30.0 30.0)
  end
  begin
     id 13 
     name thorax
     direction 0.010104 0.999947 0.00178881   
     length 1.87779   
     axis 0 0 0   XYZ
    dof rx ry rz
    limits (-20.0 45.0)
           (-30.0 30.0)
           (-30.0 30.0)
  end
  begin
     id 14 
     name lowerneck
     direction 0.0120771 0.995934 -0.0892773   
     length 1.40897   
     axis 0 0 0   XYZ
    dof rx ry rz
    limits (-20.0 45.0)
           (-30.0 30.0)
           (-30.0 30.0)
  end
  begin
     id 15 
     name upperneck
     direction -0.030568 0.999465 -0.0116366   
     length 1.38661   
     axis 0 0 0   XYZ
    dof rx ry rz
    limits (-20.0 45.0)
           (-30.0 30.0)
           (-30.0 30.0)
  end
  begin
     id 16
     name head
     direction -0.0170715 0.999854 -0.00104426  
     length 1.47052  
     axis 0 0 0   XYZ
    dof rx ry rz
    limits (-20.0 45.0)
           (-30.0 30.0)
           (-30.0 30.0)
  end
  begin
     id 17 
     name lclavicle
     direction 0.977763 0.206143 0.038532  
     length 3.02424  
     axis 0 0 0   XYZ
    dof ry rz
    limits (-20.0 10.0)
           (0.0 20.0)
  end
  begin
     id 18 
     name lhumerus
     direction 1 -4.48965e-011 -2.62654e-027   
     length 4.68382   
     axis 180 -30 -90   XYZ
    dof rx ry rz
    limits (-60.0 90.0)
           (-90.0 90.0)
           (-90.0 90.0)
  end
  begin
     id 19
     name lradius
     direction 1 -4.48973e-011 -1.54954e-027   
     length 2.98124   
     axis 180 -30 -90   XYZ
    dof rx
    limits (-10.0 170.0)
  end
  begin
     id 20
     name lwrist
     direction 1 -4.48959e-011 7.20928e-028   
     length 1.49062   
     axis -5.52449e-016 90 90   XYZ
    dof ry
    limits (-180.0 0.0)
 end
  begin
     id 21 
     name lhand
     direction 1 -4.48971e-011 1.44186e-027   
     length 0.707595   
     axis -9.20027e-016 90 90   XYZ
    dof rx rz
    limits (-90.0 90.0)
           (-45.0 45.0)
  end
  begin
     id 22 
     name lfingers
     direction 1 -4.48985e-011 2.88371e-027   
     length 0.570481   
     axis -1.84005e-015 90 90   XYZ
    dof rx
    limits (0.0 90.0)
  end
  begin
     id 23
     name lthumb
     direction 0.707107 -6.34929e-011 0.707107   
     length 0.819101   
     axis -90 45 2.85299e-015   XYZ
    dof rx rz
    limits (-45.0 45.0)
           (-45.0 45.0)
  end
  begin
     id 24 
     name rclavicle
     direction -0.958661 0.284411 -0.00895327   
     length 3.11921  
     axis 0 0 0   XYZ 
    dof ry rz
    limits (-10.0 20.0)
           (-20.0 0.0)
  end
  begin
     id 25 
     name rhumerus
     direction -1 -4.48963e-011 -4.22193e-027  
     length 4.75876   
     axis 180 30 90   XYZ
    dof rx ry rz
    limits (-90.0 60.0)
           (-90.0 90.0)
           (-90.0 90.0)
  end
  begin
     id 26 
     name rradius
     direction -1 -4.48968e-011 -1.07616e-027   
     length 2.93293   
     axis 180 30 90   XYZ
    dof rx
    limits (-10.0 170.0)
  end
  begin
     id 27 
     name rwrist
     direction -1 -4.48965e-011 7.20928e-028   
     length 1.46647   
     axis -5.52449e-016 -90 -90   XYZ
    dof ry
    limits (-180.0 0.0)
  end
  begin
     id 28
     name rhand
     direction -1 -4.48971e-011 1.44186e-027   
     length 0.831748   
     axis -9.20027e-016 -90 -90   XYZ
    dof rx rz
    limits (-90.0 90.0)
           (-45.0 45.0)
  end
  begin
     id 29
     name rfingers
     direction -1 -4.48961e-011 2.88371e-027   
     length 0.670577   
     axis -1.84005e-015 -90 -90   XYZ
    dof rx
    limits (0.0 90.0)
  end
  begin
     id 30
     name rthumb
     direction -0.707107 -6.34929e-011 0.707107   
     length 0.962818   
     axis -90 -45 -2.85299e-015   XYZ
    dof rx rz
    limits (-45.0 45.0)
           (-45.0 45.0)
  end
:hierarchy
  begin
    root lhipjoint rhipjoint lowerback
    lhipjoint lfemur
    lfemur ltibia
    ltibia lfoot
    lfoot ltoes
    rhipjoint rfemur
    rfemur rtibia
    rtibia rfoot
    rfoot rtoes
    lowerback upperback
    upperback thorax
    thorax lowerneck lclavicle rclavicle
    lowerneck upperneck
    upperneck head
    lclavicle lhumerus
    lhumerus lradius
    lradius lwrist
    lwrist lhand lthumb
    lhand lfingers
    rclavicle rhumerus
    rhumerus rradius
    rradius rwrist
    rwrist rhand rthumb
    rhand rfingers
  end

#!OML:ASF E:\id_vita\Project 1\Capture day 1\Session 1\Female.ASF
:FULLY-SPECIFIED
:DEGREES
236
root 24.8541 13.924 1.91006 -152.216 -78.5766 203.688
lowerback 25.1329 3.92111 -1.42035
upperback 0.524566 4.78661 1.5686
thorax -13.7761 2.25332 0.884949
lowerneck -2.66252 5.58659 -2.73607
upperneck -46.2961 1.30252 -9.23481
head -16.3323 0.471844 -3.35383
rclavicle -4.13472e-014 4.37326e-015
rhumerus 25.3361 -9.27277 -20.4313
rradius 108.437
rwrist 9.09113
rhand -52.4759 33.6687
rfingers 7.12502
rthumb -24.9636 5.27944
lclavicle -4.13472e-014 4.37326e-015
lhumerus 18.6484 13.5599 30.1193
lradius 100.259
lwrist -0.692471
lhand -46.635 43.3416
lfingers 7.12502
lthumb -19.3564 72.3982
rfemur -102.128 7.72174 21.5424
rtibia 58.7021
rfoot -14.5222 -15.4084
rtoes -21.1946
lfemur -103.595 -2.07748 0.132697
ltibia 69.1353
lfoot -18.8593 21.7671
ltoes 9.25839
237
root 24.9321 13.9972 1.91284 -152.678 -78.6269 204.646
lowerback 24.7007 3.88221 -1.19451
upperback 0.365561 4.81193 1.50503
thorax -13.6974 2.25564 0.69155
lowerneck -3.0324 5.57621 -2.41454
upperneck -45.9899 1.29389 -9.43322
head -16.05 0.437991 -3.46871
rclavicle -8.74653e-015 -3.4191e-014
rhumerus 23.6871 -8.3901 -20.6756
rradius 109.283
rwrist 9.21513
rhand -52.8164 36.1372
rfingers 7.12502
rthumb -25.2898 7.79358
lclavicle -8.74653e-015 -3.4191e-014
lhumerus 18.0257 12.8626 30.4195
lradius 100.576
lwrist -0.884358
lhand -46.558 42.9785
lfingers 7.12502
lthumb -19.2823 72.0425
rfemur -101.924 7.81241 21.6767
rtibia 56.9769
rfoot -14.5589 -15.3095
rtoes -20.1214
lfemur -103.55 -1.91679 0.738423
ltibia 67.9668
lfoot -19.0037 22.1366
ltoes 10.4563
238
root 25.0056 14.073 1.91602 -151.993 -78.7867 204.313
lowerback 24.4204 3.82855 -1.13064
upperback 0.151404 4.77457 1.45399
thorax -13.7808 2.24034 0.61762
lowerneck -3.5676 5.46878 -2.06154
upperneck -45.5138 1.16357 -9.57701
head -15.6475 0.336375 -3.53472
rclavicle -8.82604e-014 -5.1684e-014
rhumerus 22.155 -7.62698 -20.6833
rradius 109.689
rwrist 9.54244
rhand -52.5186 35.1607
rfingers 7.12502
rthumb -25.0045 6.77714
lclavicle -8.82604e-014 -5.1684e-014
lhumerus 17.2247 11.9535 30.8387
lradius 100.971
lwrist -1.04433
lhand -46.3117 43.0166
lfingers 7.12502
lthumb -19.0455 72.1041
rfemur -101.633 7.68853 21.5827
rtibia 55.3193
rfoot -14.4962 -14.6136
rtoes -17.6307
lfemur -103.395 -2.00725 1.03264
ltibia 66.8033
lfoot -19.209 22.4322
ltoes 11.0859
239
root 25.0812 14.1387 1.90422 -152.673 -78.6898 205.547
lowerback 23.7 3.79416 -1.01969
upperback -0.046672 4.76665 1.29992
thorax -13.5833 2.23601 0.41368
lowerneck -3.92126 5.45078 -2.28261
upperneck -45.4379 1.31563 -9.0892
head -15.5303 0.37828 -3.27713
rclavicle -2.8625e-014 -1.51076e-014
rhumerus 20.7404 -6.92067 -21.0965
rradius 109.95
rwrist 9.73251
rhand -52.0141 34.1403
rfingers 7.12502
rthumb -24.521 5.6903
lclavicle -2.8625e-014 -1.51076e-014
lhumerus 16.1747 11.1986 30.8722
lradius 101.49
lwrist -1.15423
lhand -46.0813 43.0145
lfingers 7.12502
lthumb -18.8239 72.1237
rfemur -101.549 8.0951 21.3947
rtibia 53.706
rfoot -14.4135 -13.677
rtoes -15.7562
lfemur -103.314 -1.55337 1.54118
ltibia 65.6643
lfoot -19.6068 22.6513
ltoes 10.1667
240
root 25.1537 14.1976 1.9013 -153.006 -78.8823 206.335
lowerback 22.9125 3.71912 -0.905884
upperback -0.182112 4.72943 1.36946
thorax -13.2929 2.2273 0.478239
lowerneck -3.14845 5.64423 -3.22409
upperneck -46.1618 1.6773 -8.49833
head -16.1481 0.6377 -2.95155
rclavicle -5.64548e-014 -7.23576e-014
rhumerus 19.1683 -6.19088 -21.2572
rradius 110.521
rwrist 9.69228
rhand -51.8967 35.4618
rfingers 7.12502
rthumb -24.4085 6.99653
lclavicle -5.64548e-014 -7.23576e-014
lhumerus 14.9659 10.5376 31.3082
lradius 101.99
lwrist -1.35293
lhand -46.2137 42.7837
lfingers 7.12502
lthumb -18.9512 71.8805
rfemur -101.474 8.2295 20.9928
rtibia 52.233
rfoot -14.3659 -13.3781
rtoes -14.8708
lfemur -103.249 -1.42993 2.09925
ltibia 64.4915
lfoot -19.9718 22.9414
ltoes 10.5399
241
root 25.2059 14.2786 1.91464 -152.143 -79.2872 205.096
lowerback 22.9878 3.45102 -0.509647
upperback -0.189448 4.4732 1.29754
thorax -13.2977 2.08098 0.25574
lowerneck -3.11748 5.66076 -2.95727
upperneck -46.0422 1.68646 -8.65406
head -16.0685 0.622911 -3.06513
rclavicle -3.26007e-014 1.23246e-014
rhumerus 17.2486 -5.39239 -21.6797
rradius 111.354
rwrist 9.89417
rhand -51.4955 37.7541
rfingers 7.12502
rthumb -24.0238 9.23758
lclavicle -3.26007e-014 1.23246e-014
lhumerus 13.6291 9.7834 31.6613
lradius 102.451
lwrist -1.71006
lhand -46.6361 42.3649
lfingers 7.12502
lthumb -19.3574 71.4215
rfemur -100.512 7.86424 20.3757
rtibia 50.8789
rfoot -14.377 -13.6108
rtoes -14.391
lfemur -102.375 -2.1929 2.43659
ltibia 63.2978
lfoot -20.5558 23.3845
ltoes 9.76867
242
root 25.2626 14.3435 1.93009 -150.163 -80.0941 202.848
lowerback 22.9588 3.01676 -0.0163049
upperback -0.293376 4.0422 1.29759
thorax -13.3571 1.85417 0.120314
lowerneck -3.21128 5.64066 -2.45016
upperneck -45.7592 1.57508 -9.05382
head -15.8602 0.541652 -3.30343
rclavicle 7.71285e-014 4.81059e-014
rhumerus 15.1728 -4.57671 -22.1289
rradius 112.268
rwrist 10.3467
rhand -51.4002 35.3125
rfingers 7.12502
rthumb -23.9324 6.78395
lclavicle 7.71285e-014 4.81059e-014
lhumerus 12.0671 8.63113 32.0904
lradius 103.016
lwrist -1.39958
lhand -47.0683 40.4617
lfingers 7.12502
lthumb -19.773 69.476
rfemur -99.8218 7.14112 19.5281
rtibia 49.6911
rfoot -14.7072 -19.5069
rtoes -26.1181
lfemur -101.91 -3.17086 2.51042
ltibia 62.1816
lfoot -20.9217 23.3217
ltoes 10.3945
243
root 25.3308 14.4025 1.934 -148.702 -80.7484 201.272
lowerback 22.6969 2.69302 0.313309
upperback -0.479515 3.72151 1.32802
thorax -13.4015 1.69257 0.0817582
lowerneck -3.28609 5.60677 -1.97913
upperneck -45.3563 1.50392 -9.36088
head -15.5917 0.485051 -3.49161
rclavicle -5.48646e-014 -8.62725e-014
rhumerus 13.705 -3.88596 -22.3688
rradius 112.45
rwrist 10.6995
rhand -51.8928 36.456
rfingers 7.12502
rthumb -24.4048 7.99024
lclavicle -5.48646e-014 -8.62725e-014
lhumerus 10.76 8.42389 32.6199
lradius 103.217
lwrist -2.85754
lhand -46.5616 41.4042
lfingers 7.12502
lthumb -19.2858 70.4679
rfemur -99.3485 6.68852 18.7532
rtibia 48.6003
rfoot -14.6043 -18.9377
rtoes -25.2718
lfemur -101.616 -3.79073 2.44758
ltibia 61.3115
lfoot -20.5763 23.0913
ltoes 11.0624
244
root 25.3993 14.4707 1.93134 -147.632 -80.9791 199.869
lowerback 22.4335 2.5646 0.284521
upperback -0.534719 3.55306 1.36003
thorax -13.3185 1.62361 0.199734
lowerneck -3.31374 5.60528 -1.85553
upperneck -45.1215 1.52227 -9.41926
head -15.4454 0.492318 -3.52719
rclavicle 4.77083e-015 6.87795e-014
rhumerus 11.9918 -3.31849 -22.5647
rradius 112.933
rwrist 11.165
rhand -51.606 36.4741
rfingers 7.12502
rthumb -24.1297 7.9716
lclavicle 4.77083e-015 6.87795e-014
lhumerus 9.41774 8.06071 33.0965
lradius 103.526
lwrist -3.31093
lhand -47.136 42.2577
lfingers 7.12502
lthumb -19.838 71.2653
rfemur -98.6379 6.58228 18.0934
rtibia 47.6163
rfoot -13.6341 -14.9879
rtoes -14.8119
lfemur -100.912 -4.20556 2.10271
ltibia 60.8053
lfoot -19.1447 23.139
ltoes 12.3197
245
root 25.461 14.5283 1.93626 -145.921 -81.3498 197.564
lowerback 22.2805 2.31798 0.351744
upperback -0.518211 3.24936 1.38852
thorax -13.2064 1.48448 0.30031
lowerneck -3.33986 5.68339 -1.92381
upperneck -45.0221 1.6813 -9.33484
head -15.3763 0.571007 -3.48714
rclavicle -1.59028e-014 -2.3059e-014
rhumerus 10.187 -2.89029 -22.8926
rradius 113.419
rwrist 11.6558
rhand -51.5113 36.2028
rfingers 7.12502
rthumb -24.0389 7.68829
lclavicle -1.59028e-014 -2.3059e-014
lhumerus 7.87942 7.80685 33.7874
lradius 103.868
lwrist -4.26815
lhand -47.1025 41.6392
lfingers 7.12502
lthumb -19.8058 70.6501
rfemur -97.6844 6.24809 17.4962
rtibia 46.6801
rfoot -13.5176 -16.5993
rtoes -18.9874
lfemur -100.07 -4.85901 1.27284
ltibia 60.7636
lfoot -18.5706 22.7555
ltoes 8.51861
246
root 25.5208 14.5647 1.94295 -143.934 -81.9208 195.001
lowerback 21.987 2.04238 0.541809
upperback -0.545199 2.94244 1.43164
thorax -13.0593 1.33746 0.350265
lowerneck -3.15263 5.76826 -1.97575
upperneck -45.0014 1.87775 -9.1935
head -15.3957 0.665532 -3.44207
rclavicle 3.73715e-014 5.08889e-014
rhumerus 8.0189 -2.44947 -23.4039
rradius 113.827
rwrist 12.3922
rhand -51.6422 35.5655
rfingers 7.12502
rthumb -24.1645 7.06765
lclavicle 3.73715e-014 5.08889e-014
lhumerus 6.49515 7.50523 34.4791
lradius 104.2
lwrist -5.03887
lhand -46.9364 41.2413
lfingers 7.12502
lthumb -19.6462 70.2686
rfemur -96.7924 5.76086 16.9649
rtibia 45.7289
rfoot -13.0781 -21.856
rtoes -28.5848
lfemur -99.3603 -5.52479 -0.0301993
ltibia 61.2069
lfoot -18.479 21.8237
ltoes 7.40883
247
root 25.5845 14.6072 1.93869 -143.773 -82.0836 194.26
lowerback 21.6297 2.08407 0.42512
upperback -0.576475 2.97271 1.47096
thorax -12.9006 1.36488 0.461275
lowerneck -2.91084 5.75831 -1.83324
upperneck -44.9198 1.92616 -9.13438
head -15.3935 0.677836 -3.45223
rclavicle 2.78299e-014 4.25399e-014
rhumerus 5.50595 -1.99357 -23.9595
rradius 114.282
rwrist 13.4517
rhand -51.5852 34.4865
rfingers 7.12502
rthumb -24.1098 5.98136
lclavicle 2.78299e-014 4.25399e-014
lhumerus 5.61925 7.06078 34.9706
lradius 104.262
lwrist -5.60603
lhand -46.9602 40.7187
lfingers 7.12502
lthumb -19.669 69.7436
rfemur -95.8571 5.76351 16.6224
rtibia 44.7519
rfoot -12.7665 -18.1088
rtoes -18.4449
lfemur -98.37 -5.7162 -1.53364
ltibia 62.0886
lfoot -18.3582 20.7923
ltoes 7.00904
248
root 25.6553 14.6631 1.9359 -143.193 -81.9983 192.855
lowerback 21.5664 2.16022 0.120687
upperback -0.636731 2.99542 1.42948
thorax -12.9484 1.39575 0.581575
lowerneck -2.62561 5.72786 -1.67334
upperneck -44.6923 1.97956 -9.05142
head -15.3197 0.698706 -3.44966
rclavicle 1.03368e-014 1.66979e-014
rhumerus 3.05853 -1.60676 -24.3481
rradius 114.9
rwrist 13.7487
rhand -51.4774 34.2845
rfingers 7.12502
rthumb -24.0064 5.76566
lclavicle 1.03368e-014 1.66979e-014
lhumerus 4.75943 6.58265 35.2871
lradius 104.53
lwrist -5.39698
lhand -47.0717 41.2125
lfingers 7.12502
lthumb -19.7762 70.2264
rfemur -94.6376 5.90999 16.0761
rtibia 43.6906
rfoot -12.4399 -22.0128
rtoes -26.5163
lfemur -96.9313 -5.93473 -3.26688
ltibia 63.3344
lfoot -17.9294 20.2069
ltoes 6.04583
